<svg xmlns="http://www.w3.org/2000/svg" width="160" height="160" fill="#fff"><path d="M105 19c2.2 0 4-1.8 4-4s-1.8-4-4-4c-9.76 0-18.4 4.85-23.66 12.26-.43-1.32-.9-2.64-1.44-3.93-2.72-6.57-6.67-12.46-11.72-17.5-1.56-1.58-4.1-1.58-5.65 0s-1.56 4.08 0 5.64c2.05 2.05 3.87 4.27 5.48 6.63-3.9-1.98-8.32-3.1-13-3.1-2.2 0-4 1.8-4 4s1.8 4 4 4c11.58 0 21 9.42 21 21v1h-1c-2.52 0-4.97.48-7.27 1.44-2.32.96-4.4 2.35-6.17 4.12-1.77 1.78-3.16 3.85-4.12 6.17C56.5 55.03 56 57.48 56 60c0 .3.04.62.1.92l1.22 5.17c.02.06.03.12.05.2L76.1 145.9c.43 1.8 2.04 3.08 3.9 3.08 1.85 0 3.47-1.28 3.9-3.08l20-85c.06-.3.1-.6.1-.92 0-2.52-.5-4.96-1.44-7.27-.96-2.32-2.35-4.4-4.12-6.17-1.78-1.77-3.85-3.16-6.17-4.12C89.97 41.5 87.52 41 85 41h-1v-1c0-11.58 9.42-21 21-21zM89.2 49.83c1.35.56 2.55 1.36 3.58 2.4 1.03 1.02 1.83 2.22 2.4 3.56.48 1.2.76 2.46.8 3.77l-5.12 21.8H85c-2.2 0-4 1.78-4 4s1.8 4 4 4h3.98L80 127.52 66.3 69.35H75c2.2 0 4-1.8 4-4s-1.8-4-4-4H64.43L64 59.57c.06-1.3.33-2.58.83-3.78.56-1.35 1.36-2.55 2.4-3.58 1.02-1.03 2.22-1.83 3.56-2.4C72.1 49.3 73.53 49 75 49h10c1.46 0 2.88.28 4.2.83z"/></svg>