<svg xmlns="http://www.w3.org/2000/svg" width="160" height="160" fill="#fff"><path d="M135.88 71.5c-4.12-3.62-8.9-6.45-14.24-8.4-1.46-.53-3-1-4.54-1.4l-4.2-4.44c-.74-.8-1.8-1.26-2.9-1.26h-.34l8.17-8.17c1.56-1.56 1.56-4.1 0-5.66s-4.1-1.56-5.66 0l-4.66 4.66c-.72-3.2-1.7-6.35-2.98-9.42-.85-2.03-3.2-3-5.23-2.15-2.05.85-3.02 3.2-2.17 5.23 1 2.38 1.8 4.82 2.4 7.3l-2.74-1.36c-2-1-4.4-.2-5.38 1.8-.98 1.97-.2 4.37 1.8 5.36l5.38 2.7c-.57.2-1.08.53-1.5.97l-4.2 4.43c-1.57.4-3.1.87-4.6 1.42-5.34 1.95-10.13 4.78-14.24 8.4-4.15 3.67-7.4 7.96-9.65 12.75-.7 1.52-1.3 3.14-1.8 4.83l-.93-.93L44.12 70.6 30.67 57.17c-1.56-1.56-4.1-1.56-5.65 0C15.97 66.23 11 78.27 11 91.07c0 12.8 4.97 24.84 14.03 33.9C34.08 134 46.13 139 58.93 139c8.16 0 16-2.03 22.96-5.84 2.05 1.14 4.2 2.12 6.4 2.92 5.3 1.94 10.9 2.92 16.67 2.92 5.76 0 11.37-.98 16.67-2.92 5.33-1.95 10.13-4.78 14.24-8.4 4.14-3.66 7.4-7.95 9.64-12.74 2.36-5.02 3.4-9.54 3.4-14.65v-.3c0-5.4-1.23-11.14-3.4-15.75-2.25-4.8-5.5-9.08-9.64-12.74zm-94.1 8.07l9.3 9.3c-.05.38-.08.75-.08 1.13 0 1.2.23 2.35.7 3.45.44 1.1 1.1 2.07 1.93 2.9.84.86 1.83 1.5 2.93 1.96 1.1.47 2.25.7 3.44.7.38 0 .76-.03 1.13-.08l1.17 1.17 7.07 7.06 1.06 1.06C67.28 110.02 63.7 111 60 111c-11.58 0-21-9.42-21-21 0-3.7.97-7.27 2.77-10.43zM58.92 131c-10.67 0-20.7-4.15-28.25-11.7-7.54-7.54-11.7-17.56-11.7-28.23 0-9.32 3.18-18.16 9-25.27l8 7.98C32.74 78.54 31 84.18 31 90c0 16 13 29 29 29 5.82 0 11.46-1.75 16.23-4.98L84.2 122c-1.4 1.12-2.86 2.17-4.4 3.1-.05.04-.1.07-.14.1-6.18 3.78-13.3 5.8-20.73 5.8zm82-30.72c0 3.88-.8 7.35-2.64 11.25-1.8 3.8-4.4 7.2-7.7 10.14-3.38 2.97-7.3 5.3-11.7 6.9-4.42 1.6-9.1 2.43-13.93 2.43s-9.52-.82-13.93-2.43c-.5-.2-1.02-.4-1.52-.6.56-.47 1.12-.94 1.66-1.44.57-.5 1.1-1.03 1.65-1.57.75-.75 1.17-1.77 1.17-2.83s-.42-2.07-1.17-2.82L69.3 95.8c.42-2.93 1.24-5.77 2.35-8.15 1.8-3.8 4.38-7.2 7.7-10.14 3.37-2.96 7.3-5.28 11.7-6.9 1.55-.55 3.18-1.03 4.84-1.4.76-.18 1.46-.6 2-1.16l3.82-4.04h6.55l3.82 4.05c.53.58 1.24.98 2 1.16 1.66.38 3.27.86 4.8 1.4 4.4 1.62 8.32 3.94 11.68 6.9 3.33 2.94 5.92 6.35 7.7 10.15 1.7 3.58 2.65 8.08 2.65 12.35v.28z"/></svg>