<svg xmlns="http://www.w3.org/2000/svg" width="160" height="160" fill="#fff"><path d="M138.2 16.42l-30 15c-.76.4-1.4 1.02-1.78 1.8l-3.9 7.78H88.77C86.76 24.13 72.4 11 55 11c-18.75 0-34 15.25-34 34 0 17.4 13.13 31.77 30 33.76V85c0 1.16.5 2.26 1.38 3.02l2.56 2.23c1.92 1.94 3.43 4.2 4.47 6.7 1.07 2.56 1.6 5.26 1.6 8.05v30c0 2.2 1.8 4 4 4h40c2.2 0 4-1.8 4-4v-30c0-2.8.54-5.5 1.6-8.04 1.03-2.5 2.54-4.77 4.46-6.7l2.56-2.24c.88-.76 1.38-1.86 1.38-3.02V45c0-1.06-.42-2.08-1.17-2.83S116.06 41 115 41h-3.53l1.5-3.02 28.82-14.4c1.97-1 2.77-3.4 1.78-5.37-1-1.96-3.4-2.76-5.37-1.78zM59 61V49h39.53l-6 12H59zm-19.33 4.98l3.16-3.15c1.56-1.56 1.56-4.1 0-5.66-1.56-1.56-4.1-1.56-5.66 0l-3.15 3.16c-2.4-3.28-4.06-7.14-4.7-11.33H35c2.2 0 4-1.8 4-4s-1.8-4-4-4h-5.7c.66-4.2 2.3-8.05 4.72-11.33l3.15 3.16c.78.78 1.8 1.17 2.83 1.17s2.05-.4 2.83-1.17c1.56-1.56 1.56-4.1 0-5.66l-3.16-3.15c3.28-2.4 7.14-4.06 11.33-4.7V25c0 2.2 1.8 4 4 4s4-1.8 4-4v-5.7c4.2.66 8.05 2.32 11.33 4.72l-3.16 3.15c-1.56 1.57-1.56 4.1 0 5.66.78.78 1.8 1.17 2.83 1.17s2.05-.4 2.83-1.17l3.15-3.16c2.4 3.28 4.06 7.14 4.7 11.33H55c-2.2 0-4 1.8-4 4v25.7c-4.2-.66-8.05-2.3-11.33-4.72zM109.7 84.3c-.07.06-.14.13-.2.2-2.72 2.7-4.83 5.87-6.3 9.4-1.46 3.52-2.2 7.26-2.2 11.1v26H69v-26c0-3.84-.74-7.58-2.2-11.1-1.47-3.53-3.58-6.7-6.3-9.4-.06-.07-.13-.14-.2-.2L59 83.17V69h52v14.17l-1.3 1.13zM111 49v12h-9.53l6-12H111z"/></svg>